<svg width="17" height="29" viewBox="0 0 17 29" fill="none" xmlns="http://www.w3.org/2000/svg">
<path d="M4.57713 14.3458C3.00752 14.3458 1.52188 14.3458 0 14.3458C0 12.5836 0 10.8425 0 9.05726C1.50067 9.05726 2.99603 9.05726 4.51703 9.05726C4.58862 8.14254 4.61955 7.26317 4.73179 6.39441C5.06939 3.78371 6.16264 1.6529 8.75036 0.640083C9.6094 0.304244 10.5612 0.0992066 11.4821 0.0497146C13.2011 -0.0430829 14.928 0.022317 16.6514 0.0232008C16.7221 0.0232008 16.7937 0.0355729 16.89 0.0444108C16.89 1.70416 16.89 3.348 16.89 5.07227C16.7292 5.07227 16.5613 5.06962 16.3933 5.07315C15.4221 5.09259 14.4464 5.06078 13.4813 5.14739C12.3173 5.25256 11.6377 6.06123 11.6218 7.22429C11.6138 7.81112 11.62 8.39795 11.62 9.02721C13.1746 9.02721 14.7 9.02721 16.2555 9.02721C16.2555 10.8133 16.2555 12.5562 16.2555 14.3449C14.7133 14.3449 13.1896 14.3449 11.6271 14.3449C11.6271 19.0105 11.6271 23.63 11.6271 28.2814C9.26826 28.2814 6.94833 28.2814 4.57624 28.2814C4.57713 23.6592 4.57713 19.0272 4.57713 14.3458ZM5.75256 13.1943C5.75256 17.8783 5.75256 22.5085 5.75256 27.1298C7.34514 27.1298 8.88293 27.1298 10.4773 27.1298C10.4773 22.4687 10.4773 17.8403 10.4773 13.173C12.0433 13.173 13.5546 13.173 15.0774 13.173C15.0774 12.1673 15.0774 11.2022 15.0774 10.1832C13.5325 10.1832 12.0098 10.1832 10.4764 10.1832C10.4764 9.04223 10.4083 7.94899 10.495 6.869C10.5904 5.68208 11.1817 4.72582 12.3306 4.27863C12.8918 4.06033 13.5219 3.99228 14.1291 3.92688C14.6479 3.8712 15.1781 3.91539 15.7137 3.91539C15.7137 2.97416 15.7137 2.08684 15.7137 1.12705C13.985 1.17566 12.2855 1.13147 10.6081 1.2985C9.02257 1.45582 7.72429 2.2583 6.85111 3.64496C6.09901 4.83895 5.85862 6.17788 5.79587 7.55394C5.7561 8.41651 5.7888 9.28262 5.7888 10.1982C4.2024 10.1982 2.69466 10.1982 1.17455 10.1982C1.17455 11.2243 1.17455 12.1973 1.17455 13.196C2.69731 13.1943 4.18119 13.1943 5.75256 13.1943Z" fill="white"/>
</svg>
