<svg width="254" height="223" viewBox="0 0 254 223" fill="none" xmlns="http://www.w3.org/2000/svg">
<rect x="0.5" y="0.5" width="253" height="222" rx="19.5" fill="#363637" stroke="#D9D9D9"/>
<g clip-path="url(#clip0_2096_20705)">
<path d="M195.276 119.236L191.794 106.468C191.419 105.096 190.014 104.277 188.635 104.628C183.585 105.915 178.359 102.869 176.987 97.8407C175.616 92.8121 178.572 87.5358 183.576 86.0792C184.942 85.6815 185.737 84.2625 185.363 82.8901L181.881 70.1224C181.279 67.9167 179.854 66.0773 177.869 64.9428C175.884 63.8087 173.576 63.5155 171.371 64.1167L82.4004 88.3832C80.217 88.9788 78.3936 90.3816 77.2566 92.3354L65.3145 94.1094C60.646 94.8034 57.4122 99.1656 58.1057 103.834L60.0503 116.924C60.2593 118.332 61.5579 119.311 62.9682 119.126C68.1363 118.448 72.9641 122.091 73.7299 127.246C74.4958 132.402 70.9354 137.291 65.7933 138.144C64.3901 138.377 63.4324 139.692 63.6414 141.099L65.586 154.189C66.2794 158.857 70.6416 162.091 75.3101 161.398L147.961 150.605L166.529 147.847C171.198 147.154 174.432 142.791 173.738 138.123L173.147 134.144L189.271 129.746C191.477 129.144 193.316 127.72 194.451 125.735C195.584 123.749 195.878 121.442 195.276 119.236ZM167.309 130.331L168.081 135.525L168.581 138.889C168.852 140.713 167.588 142.419 165.763 142.69L149.774 145.065L149.125 140.696L149.056 140.23C148.844 138.806 147.518 137.823 146.094 138.034C144.67 138.246 143.687 139.572 143.898 140.996L144.059 142.077L144.616 145.831L113.171 150.502L94.0864 153.337L74.5439 156.24C72.7195 156.511 71.0144 155.247 70.7434 153.422L69.143 142.65C71.9578 141.664 74.4084 139.852 76.2006 137.395C78.5088 134.231 79.4629 130.354 78.8874 126.48C78.3118 122.605 76.2721 119.174 73.1437 116.817C70.7143 114.987 67.8431 113.965 64.8635 113.841L63.2632 103.068C62.9921 101.243 64.2559 99.5382 66.0806 99.2671L76.1687 97.7686L81.3303 97.0018L136.153 88.8578L140.818 120.259C141.03 121.684 142.356 122.667 143.78 122.455C145.204 122.243 146.187 120.917 145.976 119.493L141.311 88.0919L157.3 85.7167C159.125 85.4457 160.83 86.7095 161.101 88.5342L162.701 99.3074C159.886 100.292 157.436 102.105 155.643 104.562C153.335 107.726 152.381 111.603 152.957 115.477C153.532 119.352 155.572 122.783 158.7 125.14C161.13 126.97 164.001 127.992 166.981 128.116L167.31 130.331L167.309 130.331ZM189.923 123.148C189.48 123.924 188.761 124.481 187.899 124.716L172.375 128.95L171.794 125.033C171.585 123.625 170.286 122.646 168.876 122.831C163.708 123.509 158.88 119.866 158.114 114.71C157.348 109.555 160.908 104.666 166.051 103.813C167.454 103.58 168.411 102.265 168.202 100.858L166.258 87.7673C165.564 83.0988 161.202 79.865 156.534 80.5585L137.966 83.3168L100.247 88.9199L172.743 69.1473C173.604 68.9121 174.507 69.0268 175.283 69.47C176.058 69.9133 176.615 70.6323 176.85 71.4943L179.716 82.002C177.038 83.3139 174.82 85.4035 173.331 88.0558C171.414 91.4714 170.926 95.4336 171.957 99.2126C172.988 102.992 175.42 106.158 178.805 108.127C181.434 109.656 184.407 110.33 187.38 110.1L190.246 120.608C190.481 121.47 190.367 122.372 189.923 123.148Z" fill="url(#paint0_linear_2096_20705)"/>
<path d="M147.171 128.904C147.084 128.759 146.982 128.621 146.868 128.496C146.754 128.368 146.626 128.252 146.49 128.151C146.354 128.05 146.204 127.962 146.051 127.89C145.895 127.815 145.734 127.76 145.569 127.719C145.405 127.677 145.235 127.65 145.065 127.641C144.723 127.626 144.38 127.677 144.057 127.79C143.897 127.848 143.744 127.924 143.597 128.012C143.452 128.099 143.313 128.199 143.188 128.315C143.06 128.429 142.945 128.556 142.844 128.693C142.74 128.829 142.654 128.977 142.58 129.133C142.508 129.286 142.45 129.447 142.408 129.611C142.367 129.778 142.342 129.948 142.333 130.118C142.324 130.288 142.334 130.461 142.359 130.628C142.384 130.796 142.425 130.964 142.483 131.124C142.541 131.284 142.614 131.439 142.701 131.584C142.789 131.732 142.891 131.87 143.005 131.995C143.121 132.123 143.247 132.238 143.386 132.339C143.522 132.44 143.669 132.529 143.825 132.601C143.978 132.673 144.14 132.73 144.304 132.772C144.471 132.813 144.638 132.841 144.808 132.847C144.98 132.856 145.151 132.849 145.321 132.824C145.489 132.799 145.654 132.756 145.816 132.698C145.977 132.642 146.131 132.566 146.277 132.479C146.422 132.391 146.559 132.289 146.687 132.175C146.813 132.062 146.931 131.934 147.032 131.797C147.133 131.661 147.222 131.514 147.293 131.358C147.366 131.205 147.423 131.043 147.464 130.877C147.506 130.712 147.531 130.543 147.54 130.373C147.549 130.202 147.542 130.03 147.517 129.862C147.492 129.694 147.448 129.527 147.39 129.367C147.332 129.207 147.259 129.052 147.171 128.904Z" fill="url(#paint1_linear_2096_20705)"/>
<path d="M123.224 113.078L111.652 113.115L105.061 103.603C104.496 102.787 103.517 102.363 102.535 102.509C101.554 102.655 100.74 103.345 100.436 104.29L97.3205 113.984L96.8951 115.307L92.6997 116.567L85.812 118.636C84.8615 118.921 84.1557 119.722 83.9909 120.7C83.8261 121.679 84.2315 122.666 85.0363 123.247L92.8459 128.883L94.4197 130.019L94.3153 134.682L94.1605 141.589C94.1382 142.581 94.6811 143.499 95.561 143.959C96.4407 144.417 97.505 144.337 98.3059 143.751L107.647 136.92L118.57 140.741C118.977 140.884 119.403 140.92 119.813 140.859C120.348 140.78 120.856 140.535 121.256 140.141C121.965 139.447 122.217 138.41 121.907 137.467L118.296 126.472L125.307 117.265C125.908 116.475 126.009 115.413 125.567 114.524C125.125 113.636 124.216 113.075 123.224 113.078ZM113.318 124.404C112.798 125.087 112.647 125.982 112.915 126.797L115.306 134.075L108.075 131.545C107.265 131.262 106.367 131.395 105.675 131.902L99.4915 136.424L99.6629 128.766C99.6719 128.372 99.5876 127.989 99.4306 127.64C99.2456 127.229 98.9586 126.865 98.5822 126.594L94.9446 123.968L92.3706 122.111L94.9068 121.349L99.7074 119.907C99.7831 119.884 99.8557 119.855 99.9283 119.825C100.644 119.538 101.201 118.949 101.44 118.208L103.784 110.915L108.147 117.211C108.635 117.917 109.44 118.336 110.298 118.334L117.958 118.309L113.318 124.404Z" fill="url(#paint2_linear_2096_20705)"/>
</g>
<defs>
<linearGradient id="paint0_linear_2096_20705" x1="120.785" y1="71.5691" x2="132.859" y2="152.849" gradientUnits="userSpaceOnUse">
<stop stop-color="#FFC019"/>
<stop offset="0.365" stop-color="#ED4C75"/>
<stop offset="0.7" stop-color="#973EFF"/>
<stop offset="1" stop-color="#00D6CC"/>
</linearGradient>
<linearGradient id="paint1_linear_2096_20705" x1="144.555" y1="127.667" x2="145.321" y2="132.824" gradientUnits="userSpaceOnUse">
<stop stop-color="#FFC019"/>
<stop offset="0.365" stop-color="#ED4C75"/>
<stop offset="0.7" stop-color="#973EFF"/>
<stop offset="1" stop-color="#00D6CC"/>
</linearGradient>
<linearGradient id="paint2_linear_2096_20705" x1="102.535" y1="102.509" x2="108.482" y2="142.543" gradientUnits="userSpaceOnUse">
<stop stop-color="#FFC019"/>
<stop offset="0.365" stop-color="#ED4C75"/>
<stop offset="0.7" stop-color="#973EFF"/>
<stop offset="1" stop-color="#00D6CC"/>
</linearGradient>
<clipPath id="clip0_2096_20705">
<rect width="133.48" height="133.48" fill="white" transform="translate(51 56) rotate(-8.4495)"/>
</clipPath>
</defs>
</svg>
