<svg width="28" height="28" viewBox="0 0 28 28" fill="none" xmlns="http://www.w3.org/2000/svg">
<path d="M14.0024 27.9971C11.9184 27.9971 9.83343 27.9989 7.74938 27.9971C3.91375 27.9927 0.86467 25.5019 0.120116 21.745C0.0299998 21.2918 0.00900191 20.8184 0.008127 20.3539C0.000252753 16.1123 -0.00412172 11.8707 0.00550236 7.62908C0.0142515 3.89231 2.6215 0.773235 6.2874 0.110923C6.74323 0.0286812 7.21481 0.007683 7.67939 0.00680808C11.8921 -0.00106616 16.1048 -0.00194049 20.3167 0.00330901C24.0963 0.0085585 27.1944 2.57294 27.8865 6.27558C27.9713 6.73054 27.9923 7.20299 27.9932 7.66757C28.0011 11.8803 28.0019 16.093 27.9967 20.3049C27.9923 24.0932 25.4559 27.1677 21.7349 27.8825C21.2668 27.9726 20.7786 27.9892 20.3001 27.9919C18.2011 28.0041 16.1013 27.9971 14.0024 27.9971ZM26.3405 14.0028C26.3405 11.9039 26.3414 9.80499 26.3396 7.70607C26.3396 7.41472 26.3553 7.119 26.3142 6.8329C25.8461 3.56247 23.0622 1.61928 20.3561 1.64903C16.1145 1.69452 11.8729 1.6604 7.63127 1.66215C7.3548 1.66215 7.07395 1.65253 6.80185 1.69277C3.57953 2.16435 1.60572 4.93696 1.64597 7.72182C1.70634 11.9048 1.66084 16.0886 1.66259 20.2716C1.66259 20.577 1.64772 20.8876 1.69147 21.1885C2.1613 24.4292 4.94178 26.3934 7.71176 26.3549C11.9087 26.2963 16.1075 26.34 20.3053 26.3392C20.5818 26.3392 20.8618 26.3523 21.1356 26.3182C24.1182 25.9428 26.3282 23.4432 26.3387 20.4326C26.3457 18.2891 26.3396 16.1464 26.3405 14.0028Z" fill="white"/>
<path d="M14.0208 21.6487C9.81424 21.6784 6.34957 18.2216 6.35132 13.9984C6.35394 9.7857 9.75037 6.3814 13.9797 6.35078C18.1863 6.32103 21.651 9.77782 21.6492 14.001C21.6475 18.2138 18.2502 21.6189 14.0208 21.6487ZM20.0315 14.0124C19.9431 10.665 17.4479 8.01574 14.0348 7.99124C10.6778 7.96675 8.00316 10.5565 7.99179 13.9879C7.98041 17.3222 10.5413 19.9837 13.9666 20.0091C17.3254 20.0336 19.9221 17.4447 20.0315 14.0124Z" fill="white"/>
<path d="M19.5984 5.85734C19.6045 4.62108 20.6413 3.59743 21.8583 3.62455C23.1033 3.65255 24.0981 4.66395 24.0911 5.89758C24.085 7.14171 23.085 8.13649 21.8391 8.13649C20.5661 8.13649 19.5923 7.14609 19.5984 5.85734ZM21.8391 6.4864C22.1794 6.48553 22.4506 6.22043 22.4498 5.88883C22.4498 5.56074 22.1637 5.27289 21.8382 5.27289C21.518 5.27289 21.2371 5.56162 21.2363 5.89058C21.2363 6.23618 21.49 6.48728 21.8391 6.4864Z" fill="white"/>
</svg>
